<?xml version="1.0" standalone="no"?>
<!DOCTYPE svg PUBLIC "-//W3C//DTD SVG 20010904//EN"
 "http://www.w3.org/TR/2001/REC-SVG-20010904/DTD/svg10.dtd">
<svg version="1.0" xmlns="http://www.w3.org/2000/svg"
 width="160.000000pt" height="160.000000pt" viewBox="0 0 160.000000 160.000000"
 preserveAspectRatio="xMidYMid meet">

<g transform="translate(0.000000,160.000000) scale(0.100000,-0.100000)"
fill="#000000" stroke="none">
<path d="M732 1263 l36 -4 18 -96 c10 -52 20 -90 22 -84 2 7 -4 53 -13 102
l-17 89 -42 -2 -41 -1 37 -4z"/>
<path d="M707 1230 c-7 -27 3 -60 18 -60 15 0 28 42 19 64 -9 22 -31 20 -37
-4z"/>
<path d="M597 1084 c-13 -13 -7 -52 9 -58 22 -9 46 13 42 38 -3 21 -37 34 -51
20z"/>
<path d="M1067 1084 c-4 -4 -7 -56 -7 -116 0 -99 2 -108 19 -108 17 0 19 9 20
98 1 67 -2 103 -11 115 -8 10 -17 15 -21 11z"/>
<path d="M530 970 c0 -101 2 -111 18 -108 15 3 17 16 17 108 0 92 -2 105 -17
108 -16 3 -18 -7 -18 -108z"/>
<path d="M680 1046 c0 -35 -1 -35 -47 -38 -26 -2 -48 -9 -51 -15 -3 -10 15
-13 68 -13 l71 0 -3 47 c-2 36 -7 49 -20 51 -14 3 -18 -4 -18 -32z"/>
<path d="M1455 1045 c40 -237 24 -389 -60 -555 -118 -233 -372 -374 -640 -356
-152 10 -266 52 -398 148 -38 27 -71 47 -74 44 -7 -7 79 -84 125 -113 161 -99
336 -139 491 -113 111 19 237 67 296 112 70 55 125 102 125 107 0 4 8 16 18
27 67 72 133 198 157 299 22 91 19 254 -5 334 -23 76 -44 114 -35 66z"/>
<path d="M740 1020 l0 -40 150 0 150 0 0 34 c0 22 -6 36 -16 40 -9 3 -76 6
-150 6 l-134 0 0 -40z"/>
<path d="M580 945 c0 -12 19 -15 110 -15 l110 0 0 -25 c0 -18 -5 -25 -20 -25
-11 0 -20 -4 -20 -10 0 -5 23 -10 51 -10 31 0 48 4 44 10 -3 6 -12 10 -19 10
-8 0 -16 11 -18 25 l-5 25 113 0 c95 0 114 3 114 15 0 13 -32 15 -230 15 -198
0 -230 -2 -230 -15z"/>
<path d="M287 744 c-12 -12 -8 -192 4 -200 20 -12 30 20 26 84 -1 34 0 62 3
62 4 0 13 -26 20 -57 15 -71 26 -93 46 -93 16 0 29 28 47 100 17 71 24 67 23
-14 0 -41 2 -78 7 -82 19 -19 28 19 25 107 -3 94 -3 94 -30 97 -27 3 -34 -11
-64 -132 -7 -27 -9 -23 -33 50 -20 61 -31 80 -46 82 -12 2 -24 0 -28 -4z"/>
<path d="M554 737 c-2 -7 -4 -54 -2 -103 l3 -89 68 0 c79 0 95 19 20 23 l-53
3 0 35 0 34 50 0 c49 0 66 12 34 24 -9 3 -31 6 -50 6 -30 0 -34 3 -34 25 0 24
3 25 56 25 40 0 55 3 52 13 -7 18 -137 22 -144 4z"/>
<path d="M752 648 l3 -103 30 -3 c102 -12 165 71 120 159 -19 35 -50 49 -111
49 l-45 0 3 -102z m113 51 c12 -12 12 -96 -1 -109 -5 -5 -24 -13 -42 -16 l-32
-6 0 77 0 78 32 -7 c18 -3 37 -11 43 -17z"/>
<path d="M980 728 c-36 -39 -19 -70 50 -93 56 -19 67 -30 50 -50 -18 -22 -60
-18 -87 6 -21 21 -23 21 -29 4 -11 -26 30 -55 77 -55 26 0 47 8 66 24 24 21
26 27 18 52 -8 23 -21 33 -60 46 -36 12 -51 22 -53 37 -3 18 2 21 31 21 19 0
40 -7 47 -15 16 -20 30 -19 30 1 0 45 -103 61 -140 22z"/>
<path d="M1207 705 c-10 -25 -24 -65 -33 -90 -16 -44 -14 -75 6 -75 6 0 14 10
19 23 13 34 74 35 90 1 6 -13 15 -24 21 -24 23 0 20 30 -12 116 -26 69 -38 90
-54 92 -17 2 -24 -6 -37 -43z m55 -60 c2 -25 0 -29 -17 -27 -28 5 -28 6 -15
48 14 41 26 32 32 -21z"/>
<path d="M240 370 c0 -5 5 -10 11 -10 5 0 7 5 4 10 -3 6 -8 10 -11 10 -2 0 -4
-4 -4 -10z"/>
</g>
</svg>
